Coordinates
version=1
nRows=19
nColumns=36
inDegrees=yes

Units are S.I. units (second, meters, Newtons, ...)
If the header above contains a line with 'inDegrees', this indicates whether rotational values are in degrees (yes) or radians (no).

endheader
time	pelvis_tilt	pelvis_list	pelvis_rotation	pelvis_tx	pelvis_ty	pelvis_tz	hip_flexion_r	hip_adduction_r	hip_rotation_r	knee_angle_r	knee_angle_r_beta	ankle_angle_r	subtalar_angle_r	mtp_angle_r	hip_flexion_l	hip_adduction_l	hip_rotation_l	knee_angle_l	knee_angle_l_beta	ankle_angle_l	subtalar_angle_l	mtp_angle_l	lumbar_extension	lumbar_bending	lumbar_rotation	arm_flex_r	arm_add_r	arm_rot_r	elbow_flex_r	pro_sup_r	arm_flex_l	arm_add_l	arm_rot_l	elbow_flex_l	pro_sup_l
      1.75000000	     -4.58923786	     10.92880923	      8.06459839	     -0.05667989	      1.19470487	      0.10800221	     -1.90959147	    -12.26575965	      8.57311162	      0.23082595	      0.00402867	     11.94414699	     -7.80637891	     -7.49999987	      4.94148254	      8.82657211	     18.52753060	      0.22187463	      0.00387244	    -25.73103250	    -34.58501873	     -7.49999987	     -9.06954242	    -12.81323310	      5.88454524	    -19.90406157	    -31.60378965	     30.71598388	     98.64424203	    106.87353726	     33.45021645	    -45.24057286	     88.53056225	    101.13972310	    109.89405565
      1.76666670	     -4.65681871	     10.90955416	      8.05692737	     -0.05581116	      1.19575364	      0.10697308	     -1.84814742	    -12.26556484	      8.63762349	      0.22886997	      0.00399453	     12.00690999	     -7.85714471	     -7.49999987	      4.96044568	      8.83291243	     18.61867834	      0.22165387	      0.00386859	    -25.51612419	    -34.58635078	     -7.49999987	     -8.86512711	    -12.74064536	      5.82545978	    -19.86622996	    -31.59169054	     30.83061429	     98.58632856	    106.95423176	     33.01634532	    -45.38407503	     88.08536576	    101.15400794	    109.90905183
      1.78333330	     -4.66889546	     10.90193161	      8.04028932	     -0.05555830	      1.19492816	      0.10677718	     -1.83499870	    -12.29704173	      8.64971504	      0.22779211	      0.00397572	     12.07077309	     -7.73086255	     -7.49999987	      4.92117430	      8.84650324	     18.75008272	      0.22183514	      0.00387175	    -25.27577945	    -34.58629949	     -7.49999987	     -8.73444431	    -12.62742479	      5.85116285	    -19.98552150	    -31.58791105	     30.68277694	     98.59686074	    106.70082986	     32.70303696	    -45.43793455	     87.80405742	    101.16523099	    109.76817741
      1.80000000	     -4.63078824	     10.99923364	      8.01896504	     -0.05454907	      1.19757006	      0.10697902	     -1.89901152	    -12.41790418	      8.63009203	      0.22789813	      0.00397757	     12.13845783	     -7.72175693	     -7.49999987	      4.81306091	      8.94264136	     18.69105224	      0.22038051	      0.00384637	    -25.10749189	    -34.58685144	     -7.49999987	     -8.67643148	    -12.70161823	      5.83877886	    -19.92395713	    -31.42291513	     30.75670801	     98.50981350	    106.80300100	     32.45291415	    -45.46575481	     87.58955295	    101.03915256	    110.01157924
      1.81666670	     -4.50063601	     11.02935028	      8.03389266	     -0.05678807	      1.19871271	      0.10683130	     -2.07738439	    -12.44773775	      8.48276260	      0.22410322	      0.00391134	     12.13387291	     -7.63998680	     -7.49999987	      4.62676949	      8.96026130	     18.72116210	      0.21754286	      0.00379684	    -24.96811198	    -34.59127102	     -7.49999987	     -8.76770417	    -12.66920528	      5.74554310	    -19.60731149	    -31.42968812	     31.11259442	     98.22282786	    104.04425669	     32.43148733	    -45.45526323	     87.68777108	    100.92304343	    107.26703689
      1.83333330	     -4.49860325	     11.06030324	      8.03343959	     -0.05449666	      1.19496004	      0.10676053	     -2.07539483	    -12.49967304	      8.47348883	      0.22357443	      0.00390211	     12.15509564	     -7.65477764	     -7.49999987	      4.53521627	      9.00358183	     18.62158536	      0.21853545	      0.00381416	    -24.79757086	    -34.59164142	     -7.49999987	     -8.60906408	    -12.69524053	      5.83144176	    -19.54007483	    -31.40083480	     31.08052437	     98.26657086	    104.11223418	     32.41319839	    -45.48164801	     87.67564420	    100.91243422	    107.34228354
      1.85000000	     -4.57674605	     11.19119767	      7.93196454	     -0.05405480	      1.19489202	      0.10721290	     -1.99809023	    -12.67899538	      8.41826980	      0.22283290	      0.00388917	     12.16226362	     -7.54418890	     -7.49999987	      4.54937313	      9.14545403	     18.37980480	      0.21931741	      0.00382781	    -24.73888030	    -34.58726694	     -7.49999987	     -8.44477570	    -12.85611383	      6.02970721	    -19.57721603	    -31.27416743	     30.79711967	     98.24539619	    106.47732171	     32.42878054	    -45.50066890	     87.55852660	    100.84534924	    109.91099036
      1.86666670	     -4.60417088	     11.23731904	      7.90526189	     -0.05485742	      1.19253071	      0.10748979	     -1.97060409	    -12.74392731	      8.34553301	      0.22055011	      0.00384933	     12.22116588	     -7.49342921	     -7.49999987	      4.54348823	      9.19883020	     18.23983055	      0.22099984	      0.00385717	    -24.64064940	    -34.59283973	     -7.49999987	     -8.38163670	    -12.91232041	      6.04157121	    -19.45417120	    -31.28575876	     30.87676709	     98.38896468	    106.54334450	     32.37956708	    -45.65473409	     87.49139254	    101.01319799	    109.84367181
      1.88333330	     -4.68073177	     11.23928055	      7.89077890	     -0.05671641	      1.19359530	      0.10698662	     -1.88618141	    -12.75050164	      8.38809819	      0.22029273	      0.00384483	     12.22931658	     -7.59300691	     -7.49999987	      4.64773188	      9.20994509	     18.18858083	      0.22057729	      0.00384980	    -24.63967917	    -34.59378562	     -7.49999987	     -8.29076247	    -12.91068603	      6.04249378	    -19.33003491	    -31.29907445	     30.87571535	     98.41169269	    106.60815826	     32.40472524	    -45.67523676	     87.44879985	    101.01023455	    109.74592680
      1.90000000	     -4.70104047	     11.24295403	      7.89176685	     -0.05552484	      1.19634137	      0.10698865	     -1.84549080	    -12.74699307	      8.36284698	      0.22170739	      0.00386952	     12.25341762	     -7.61068456	     -7.49999987	      4.69391485	      9.21852009	     18.13645849	      0.22141110	      0.00386435	    -24.60559390	    -34.56322639	     -7.49999987	     -8.33322140	    -12.90400453	      6.04046632	    -19.29902447	    -31.29273394	     30.86645442	     98.41565032	    106.60960234	     32.42330372	    -45.66539572	     87.43876043	    101.00516747	    109.74413721
      1.91666670	     -4.67315200	     11.31514610	      7.76015134	     -0.05425329	      1.19590055	      0.10644931	     -1.88679881	    -12.83283004	      8.29030499	      0.21758884	      0.00379764	     12.25658699	     -7.42189945	     -7.49999987	      4.66130908	      9.27882060	     17.94287603	      0.21943349	      0.00382984	    -24.78064835	    -34.59244023	     -7.49999987	     -8.37318195	    -12.97924728	      6.09537408	    -19.19386343	    -31.18309170	     30.81588601	     98.38525395	    106.81797159	     32.25185868	    -45.65325033	     87.06211711	    100.91174388	    109.67961257
      1.93333330	     -4.71677856	     11.32002432	      7.66197477	     -0.05652727	      1.19634662	      0.10635376	     -1.79210267	    -12.86756337	      8.31421421	      0.21700003	      0.00378736	     12.25753491	     -7.41464376	     -7.49999987	      4.74003730	      9.30438482	     17.81816276	      0.21559950	      0.00376292	    -24.75267917	    -34.59358496	     -7.49999987	     -8.37666059	    -12.97774566	      6.19159253	    -19.17207994	    -31.15824155	     30.83030281	     98.28841982	    106.76820819	     32.22285638	    -45.59004537	     86.91943837	    100.76573118	    109.53801310
      1.95000000	     -4.69582368	     11.32981692	      7.59744451	     -0.05663954	      1.19912668	      0.10654922	     -1.79125559	    -12.88526788	      8.27572597	      0.21502075	      0.00375282	     12.20693593	     -7.30556597	     -7.49999987	      4.76636391	      9.32082662	     17.78960587	      0.21219206	      0.00370345	    -24.89733887	    -34.59060235	     -7.49999987	     -8.50376201	    -12.96294950	      6.05272876	    -18.92891211	    -31.08117618	     30.90594540	     98.20360117	    106.45755659	     31.96214202	    -45.55672651	     86.46520404	    100.65031860	    109.64298474
      1.96666670	     -4.65514133	     11.31207110	      7.59519420	     -0.05822744	      1.20311003	      0.10635082	     -1.83970157	    -12.86147662	      8.23157070	      0.21317217	      0.00372056	     12.08789187	     -7.23335759	     -7.49999987	      4.75278716	      9.31412284	     17.77319357	      0.21003004	      0.00366572	    -25.10466282	    -34.58775713	     -7.49999987	     -8.67362167	    -12.92819957	      5.99231977	    -18.65551391	    -30.99779162	     30.96608912	     97.91962109	    106.32644922	     32.15120396	    -45.32950989	     86.53830116	    100.27939647	    109.36074829
      1.98333330	     -4.67904482	     11.32822122	      7.59903693	     -0.05585145	      1.19988325	      0.10590050	     -1.84046854	    -12.89030238	      8.26385815	      0.20821124	      0.00363397	     12.03186308	     -7.13592738	     -7.49999987	      4.75858458	      9.35089248	     17.79950181	      0.21101378	      0.00368289	    -25.25604024	    -34.57686631	     -7.49999987	     -8.74528957	    -12.94880458	      5.97122639	    -18.52874048	    -30.95139422	     30.94028910	     97.89304521	    106.33420054	     32.22118092	    -45.24582460	     86.47965118	    100.22373731	    109.34666919
      2.00000000	     -4.56800379	     11.35111129	      7.57346715	     -0.05463417	      1.20098355	      0.10629573	     -1.94244307	    -12.91254074	      7.99034528	      0.20694498	      0.00361187	     12.17189740	     -6.66544883	     -7.49999987	      4.64465587	      9.37739878	     17.84050982	      0.20777477	      0.00362635	    -25.34488133	    -34.57609575	     -7.49999987	     -8.93196670	    -12.96409359	      6.00949627	    -18.42323978	    -30.83192926	     30.83297770	     97.57261625	    106.10837875	     32.34178849	    -45.07521815	     86.51039972	     99.82098365	    109.23290513
      2.01666670	     -4.58601362	     11.34398568	      7.57737364	     -0.05373266	      1.19835295	      0.10585603	     -1.94908696	    -12.90882652	      7.98998451	      0.20666029	      0.00360690	     12.17421373	     -6.65162611	     -7.49999987	      4.65481814	      9.38212910	     17.84498676	      0.21050556	      0.00367402	    -25.30948484	    -34.55019929	     -7.49999987	     -8.95330484	    -12.95871327	      6.02145580	    -18.39753486	    -30.83819741	     30.82389365	     97.57841052	    106.11058516	     32.35367245	    -45.08447826	     86.50278930	     99.81308269	    109.22815787
      2.03333330	     -4.54585933	     11.33747204	      7.57019829	     -0.05302246	      1.19466208	      0.10563912	     -2.05727829	    -12.89191652	      7.99500746	      0.20215618	      0.00352829	     12.16671486	     -6.60157753	     -7.49999987	      4.56424592	      9.37677547	     17.89745640	      0.20507120	      0.00357917	    -25.29346942	    -34.56917138	     -7.49999987	     -8.88588580	    -12.96994537	      6.06125041	    -18.40540327	    -30.85403205	     30.82170271	     97.61229511	    106.11915225	     32.34383320	    -45.17089804	     86.50675181	     99.80536170	    109.21558741
      2.05000000	     -4.33840773	     11.35342872	      7.58789709	     -0.05142230	      1.19619127	      0.10529732	     -2.41247810	    -12.87258244	      7.64138193	      0.20118761	      0.00351139	     12.48061018	     -6.03969125	     -7.49999987	      4.27343773	      9.37182203	     17.99661345	      0.20159178	      0.00351844	    -25.21179214	    -34.56744733	     -7.49999987	     -9.16235812	    -12.94175786	      6.02068798	    -18.45386670	    -30.92831932	     30.73015890	     97.89673477	    106.20719033	     32.47583491	    -45.27205689	     86.70637551	     99.93015193	    108.97545133
